<svg xmlns="http://www.w3.org/2000/svg" width="762" height="762" viewBox="0 0 762 762" version="1.1">
    <path
        d="M 373.030 248.060 C 371.671 248.631, 369.080 250.227, 367.271 251.607 C 365.462 252.987, 363.047 255.947, 361.905 258.186 C 360.763 260.424, 359.581 264.663, 359.277 267.607 L 358.725 272.958 270.112 273.229 C 181.500 273.500, 181.500 273.500, 177.432 275.678 C 175.194 276.875, 171.663 279.737, 169.585 282.038 C 167.506 284.339, 165.062 287.859, 164.153 289.860 C 162.661 293.146, 162.500 301.131, 162.500 372 C 162.500 450.500, 162.500 450.500, 164.870 455.270 C 166.173 457.894, 169.276 461.834, 171.766 464.025 C 174.387 466.332, 178.412 468.639, 181.328 469.505 C 185.626 470.781, 198.969 471, 272.542 471 L 358.720 471 359.293 476.547 C 359.635 479.865, 360.919 483.893, 362.488 486.569 C 363.930 489.031, 366.998 492.268, 369.305 493.762 C 372.924 496.107, 374.539 496.481, 381.073 496.490 C 387.655 496.499, 389.185 496.143, 392.768 493.772 C 395.035 492.272, 398.070 489.031, 399.512 486.570 C 401.081 483.893, 402.365 479.865, 402.707 476.547 L 403.280 471 449.640 471 L 496 471 496 519 C 496 545.400, 496.178 567, 496.397 567 C 496.615 567, 503.216 563.173, 511.066 558.495 L 525.339 549.991 537.193 569.995 C 543.713 580.998, 549.584 590, 550.239 590 C 550.894 590, 556.734 586.829, 563.215 582.953 C 569.697 579.078, 575 575.516, 575 575.038 C 575 574.560, 570.034 565.802, 563.965 555.576 C 557.896 545.350, 552.692 536.361, 552.400 535.600 C 552.037 534.655, 556.315 531.588, 565.935 525.897 C 573.671 521.320, 580 517.323, 580 517.013 C 580 516.704, 561.518 506.337, 538.930 493.975 L 497.859 471.500 538.680 471 C 573.493 470.574, 580.026 470.261, 583.073 468.875 C 585.038 467.981, 588.329 465.772, 590.387 463.965 C 592.445 462.158, 595.337 458.390, 596.814 455.590 C 599.500 450.500, 599.500 450.500, 599.500 372 C 599.500 301.131, 599.339 293.146, 597.847 289.860 C 596.938 287.859, 594.494 284.339, 592.415 282.038 C 590.337 279.737, 586.806 276.875, 584.568 275.678 C 580.500 273.500, 580.500 273.500, 491.888 273.229 L 403.275 272.958 402.709 267.473 C 402.398 264.456, 401.099 260.098, 399.822 257.788 C 398.545 255.479, 395.568 252.232, 393.207 250.575 C 389.628 248.062, 387.799 247.516, 382.207 247.291 C 378.518 247.143, 374.388 247.489, 373.030 248.060"
        stroke="none" fill="#f3f3f3" fill-rule="evenodd" />
    <path
        d="M 337 25.045 C 316.925 34.904, 287.900 49.136, 272.500 56.671 C 257.100 64.206, 232.125 76.417, 217 83.806 C 201.875 91.195, 179.825 101.963, 168 107.736 C 156.175 113.509, 139.300 121.719, 130.500 125.981 C 121.700 130.243, 107.075 137.430, 98 141.952 C 88.925 146.475, 80.908 150.665, 80.184 151.264 C 79.460 151.864, 78.197 153.653, 77.376 155.240 C 76.555 156.827, 75.011 162.034, 73.944 166.812 C 72.878 171.591, 70.482 182.250, 68.620 190.500 C 66.759 198.750, 63.141 214.950, 60.580 226.500 C 58.019 238.050, 55.291 250.200, 54.518 253.500 C 53.745 256.800, 51.010 268.950, 48.439 280.500 C 45.868 292.050, 42.241 308.250, 40.380 316.500 C 38.519 324.750, 34.965 340.725, 32.482 352 C 29.999 363.275, 27.327 375.200, 26.545 378.500 C 25.763 381.800, 23.922 389.900, 22.454 396.500 C 20.986 403.100, 17.347 419.300, 14.366 432.500 C 11.385 445.700, 7.834 461.599, 6.473 467.830 C 5.113 474.062, 4 481.171, 4 483.630 C 4 486.088, 4.654 489.314, 5.454 490.800 C 6.254 492.285, 52.046 551.310, 107.215 621.967 C 165.202 696.234, 208.956 751.401, 210.921 752.726 C 214.321 755.017, 214.321 755.017, 381.088 754.759 C 547.854 754.500, 547.854 754.500, 550.677 752.412 C 552.230 751.264, 568.055 731.689, 585.846 708.912 C 603.636 686.136, 648.186 629.061, 684.846 582.080 C 721.505 535.099, 752.736 494.824, 754.246 492.580 C 756.291 489.541, 756.993 487.273, 756.996 483.692 C 756.998 481.047, 753.594 463.722, 749.431 445.192 C 745.268 426.661, 740.145 403.850, 738.047 394.500 C 735.949 385.150, 733.055 372.212, 731.616 365.750 C 730.177 359.288, 727.822 348.712, 726.382 342.250 C 724.942 335.788, 722.295 323.975, 720.500 316 C 718.705 308.025, 716.027 296.100, 714.549 289.500 C 713.071 282.900, 710.336 270.750, 708.472 262.500 C 706.607 254.250, 702.985 238.050, 700.422 226.500 C 697.860 214.950, 694.241 198.750, 692.380 190.500 C 690.518 182.250, 688.103 171.504, 687.013 166.620 C 685.924 161.735, 684.237 156.335, 683.266 154.620 C 681.805 152.040, 677.176 149.332, 656.500 138.966 C 642.750 132.073, 619.125 120.404, 604 113.036 C 588.875 105.668, 563.675 93.368, 548 85.703 C 532.325 78.038, 511.400 67.830, 501.500 63.019 C 491.600 58.208, 461.758 43.635, 435.184 30.636 C 386.867 7, 386.867 7, 380.184 7.060 C 373.589 7.118, 373.014 7.358, 337 25.045 M 373.030 248.060 C 371.671 248.631, 369.080 250.227, 367.271 251.607 C 365.462 252.987, 363.047 255.947, 361.905 258.186 C 360.763 260.424, 359.581 264.663, 359.277 267.607 L 358.725 272.958 270.112 273.229 C 181.500 273.500, 181.500 273.500, 177.432 275.678 C 175.194 276.875, 171.663 279.737, 169.585 282.038 C 167.506 284.339, 165.062 287.859, 164.153 289.860 C 162.661 293.146, 162.500 301.131, 162.500 372 C 162.500 450.500, 162.500 450.500, 164.870 455.270 C 166.173 457.894, 169.276 461.834, 171.766 464.025 C 174.387 466.332, 178.412 468.639, 181.328 469.505 C 185.626 470.781, 198.969 471, 272.542 471 L 358.720 471 359.293 476.547 C 359.635 479.865, 360.919 483.893, 362.488 486.569 C 363.930 489.031, 366.998 492.268, 369.305 493.762 C 372.924 496.107, 374.539 496.481, 381.073 496.490 C 387.655 496.499, 389.185 496.143, 392.768 493.772 C 395.035 492.272, 398.070 489.031, 399.512 486.570 C 401.081 483.893, 402.365 479.865, 402.707 476.547 L 403.280 471 449.640 471 L 496 471 496 519 C 496 545.400, 496.178 567, 496.397 567 C 496.615 567, 503.216 563.173, 511.066 558.495 L 525.339 549.991 537.193 569.995 C 543.713 580.998, 549.584 590, 550.239 590 C 550.894 590, 556.734 586.829, 563.215 582.953 C 569.697 579.078, 575 575.516, 575 575.038 C 575 574.560, 570.034 565.802, 563.965 555.576 C 557.896 545.350, 552.692 536.361, 552.400 535.600 C 552.037 534.655, 556.315 531.588, 565.935 525.897 C 573.671 521.320, 580 517.323, 580 517.013 C 580 516.704, 561.518 506.337, 538.930 493.975 L 497.859 471.500 538.680 471 C 573.493 470.574, 580.026 470.261, 583.073 468.875 C 585.038 467.981, 588.329 465.772, 590.387 463.965 C 592.445 462.158, 595.337 458.390, 596.814 455.590 C 599.500 450.500, 599.500 450.500, 599.500 372 C 599.500 301.131, 599.339 293.146, 597.847 289.860 C 596.938 287.859, 594.494 284.339, 592.415 282.038 C 590.337 279.737, 586.806 276.875, 584.568 275.678 C 580.500 273.500, 580.500 273.500, 491.888 273.229 L 403.275 272.958 402.709 267.473 C 402.398 264.456, 401.099 260.098, 399.822 257.788 C 398.545 255.479, 395.568 252.232, 393.207 250.575 C 389.628 248.062, 387.799 247.516, 382.207 247.291 C 378.518 247.143, 374.388 247.489, 373.030 248.060"
        stroke="none" fill="#243c7c" fill-rule="evenodd" />
</svg>